<svg width="280" height="280" viewBox="0 0 280 280" fill="none" xmlns="http://www.w3.org/2000/svg">
<path d="M277.692 114.686C273.582 92.3286 264.09 71.3084 250.035 53.4418C235.98 35.5752 217.786 21.3997 197.026 12.1404C176.265 2.88102 153.561 -1.18369 130.878 0.297517C108.194 1.77872 86.212 8.76128 66.8316 20.6418C47.4512 32.5223 31.2552 48.9433 19.6433 68.4859C8.03142 88.0285 1.35291 110.105 0.18492 132.807C-0.983069 155.509 3.3946 178.154 12.9396 198.785C22.4846 219.416 36.9099 237.412 54.9687 251.219L118.596 167.996C114.05 164.521 110.419 159.991 108.016 154.797C105.613 149.604 104.511 143.904 104.805 138.189C105.099 132.475 106.781 126.918 109.704 121.998C112.627 117.079 116.703 112.945 121.582 109.955C126.46 106.964 131.994 105.207 137.704 104.834C143.414 104.461 149.129 105.484 154.355 107.815C159.581 110.146 164.16 113.714 167.698 118.211C171.236 122.709 173.626 128 174.66 133.628L277.692 114.686Z" fill="#282A35"/>
<path d="M271.951 93.2126C264.953 73.4794 253.62 55.5668 238.783 40.7938C223.947 26.0207 205.986 14.7634 186.223 7.85074L151.635 106.735C156.61 108.475 161.131 111.309 164.866 115.028C168.601 118.746 171.454 123.255 173.215 128.223L271.951 93.2126Z" fill="#EFD23C"/>
<path d="M143.143 0.0352921C118.187 -0.525178 93.5347 5.59721 71.7403 17.7682L122.818 109.232C128.304 106.168 134.509 104.627 140.791 104.768L143.143 0.0352921Z" fill="#EF673C"/>
<path d="M45.0276 37.1397C31.5836 49.5527 20.7034 64.4808 13.0024 81.0796L108.032 125.168C109.97 120.99 112.709 117.232 116.093 114.108L45.0276 37.1397Z" fill="#EFD23C"/>
<path d="M4.64938 104.22C-3.40382 134.684 -0.94436 166.974 11.6299 195.867L107.686 154.063C104.521 146.79 103.902 138.662 105.929 130.993L4.64938 104.22Z" fill="#EF673C"/>
<path d="M27.5332 223.374C35.3402 233.905 44.5876 243.288 55.0044 251.246L118.605 168.003C115.983 166 113.655 163.638 111.69 160.987L27.5332 223.374Z" fill="#EF3C51"/>
</svg>
